<?xml version="1.0" encoding="UTF-8"?> <svg xmlns="http://www.w3.org/2000/svg" width="171" height="34" viewBox="0 0 171 34" fill="none"> <path fill-rule="evenodd" clip-rule="evenodd" d="M158.171 9.43954H160.059C160.255 9.43954 160.406 9.48683 160.517 9.57889C160.622 9.67428 160.715 9.79193 160.793 9.93544C160.793 9.93544 164.042 15.5005 164.113 15.7104C164.185 15.4946 167.416 9.93544 167.416 9.93544C167.473 9.81501 167.563 9.70376 167.68 9.59613C167.797 9.49155 167.95 9.43954 168.135 9.43954H170.035L165.179 17.5202V22.7289H163.016V17.5202L158.171 9.43954Z" fill="black"></path> <path fill-rule="evenodd" clip-rule="evenodd" d="M140.902 11.2417V9.4397H150.274V11.2417H146.674V22.7291H144.511V11.2417H140.902Z" fill="black"></path> <path fill-rule="evenodd" clip-rule="evenodd" d="M130.183 22.7288H132.349V9.43939H130.183V22.7288Z" fill="black"></path> <path fill-rule="evenodd" clip-rule="evenodd" d="M114.128 15.8112H115.077C115.571 15.8112 116.004 15.7514 116.371 15.629C116.741 15.5077 117.049 15.3414 117.296 15.125C117.542 14.9084 117.726 14.6517 117.849 14.3538C117.972 14.0573 118.035 13.7275 118.035 13.3681C118.035 12.64 117.792 12.0862 117.315 11.7066C116.834 11.3245 116.105 11.1342 115.134 11.1342H114.128V15.8112ZM111.965 22.729V9.43961H115.107C115.972 9.43961 116.717 9.53 117.347 9.70994C117.976 9.89128 118.491 10.1438 118.895 10.4709C119.298 10.7994 119.593 11.1929 119.782 11.6565C119.976 12.1182 120.072 12.6317 120.072 13.1979C120.072 13.6585 120.001 14.0904 119.87 14.4887C119.732 14.8889 119.537 15.2519 119.282 15.5806C119.026 15.9071 118.71 16.1905 118.333 16.4297C117.955 16.6714 117.051 16.9899 117.051 16.9899L121.316 22.729H119.39C119.008 22.729 118.734 22.5816 118.558 22.2876L114.894 17.3767H114.128V22.729H111.965Z" fill="black"></path> <path fill-rule="evenodd" clip-rule="evenodd" d="M99.5836 22.7288H101.747V9.43939H99.5836V22.7288Z" fill="black"></path> <path fill-rule="evenodd" clip-rule="evenodd" d="M85.0889 16.2148H86.5354C87.0155 16.2148 87.4407 16.1522 87.8064 16.029C88.1716 15.9072 88.4742 15.7325 88.7156 15.5067C88.9545 15.2819 89.1362 15.0108 89.2613 14.6923C89.3815 14.3747 89.4435 14.0162 89.4435 13.6215C89.4435 13.2294 89.3859 12.8809 89.2691 12.5758C89.1534 12.2682 88.9735 12.0092 88.7323 11.7951C88.4912 11.5826 88.1889 11.4204 87.824 11.3039C87.456 11.191 87.0285 11.134 86.5354 11.134H85.0889V16.2148ZM82.924 22.729V9.43964H86.5399C87.4037 9.43964 88.1563 9.54282 88.7938 9.74696C89.4288 9.95027 89.9569 10.2345 90.3702 10.6016C90.7871 10.9685 91.0944 11.4082 91.2994 11.9222C91.5036 12.4359 91.6081 13.0021 91.6081 13.6215C91.6081 14.2495 91.4991 14.8289 91.2825 15.3537C91.0675 15.8841 90.7473 16.3349 90.3226 16.7135C89.8996 17.0903 89.369 17.3854 88.7384 17.5957C88.1065 17.8023 87.3731 17.9074 86.5385 17.9074H85.0889V22.729H82.924Z" fill="black"></path> <path fill-rule="evenodd" clip-rule="evenodd" d="M72.9214 16.8091C72.4486 16.2495 71.4835 15.679 70.2038 15.0891C70.1371 15.061 70.0481 15.0168 69.9351 14.9643C68.4322 14.2731 67.7343 13.5124 67.7405 12.6956C67.7499 11.3386 68.9578 10.9612 69.6189 10.964C70.0342 10.964 70.413 11.0638 70.7375 11.261C71.0465 11.4488 71.3297 11.7408 71.5869 12.1293L73.1241 11.3378C72.8777 10.6903 72.4441 10.1872 71.8342 9.84035C71.197 9.47239 70.3974 9.29022 69.4481 9.29022C68.2995 9.29022 67.3589 9.61591 66.6547 10.2617C65.9507 10.9033 65.5917 11.7572 65.5917 12.7988C65.5917 13.597 65.8275 14.2815 66.2934 14.8341C66.7637 15.392 67.7252 16.0284 69.155 16.7265C69.2479 16.7676 69.3845 16.8319 69.5641 16.9195C70.8652 17.5361 71.5244 18.252 71.5244 19.0535C71.5244 19.6635 71.3274 20.1571 70.9397 20.524C70.5531 20.8883 70.0292 21.0744 69.3761 21.0744C68.6958 21.0744 68.1254 20.912 67.6851 20.598C67.2651 20.2959 66.9664 19.8634 66.7968 19.308L65.2382 20.0273C65.4598 20.9281 65.914 21.6318 66.5926 22.1196C67.2868 22.6191 68.1974 22.8739 69.2879 22.8739C70.5918 22.8739 71.6384 22.5115 72.4002 21.7992C73.162 21.0869 73.6904 20.1413 73.6904 19.0661C73.6904 18.237 73.3892 17.3603 72.9214 16.8091Z" fill="black"></path> <path fill-rule="evenodd" clip-rule="evenodd" d="M51.5322 13.4373L53.6473 18.0133H49.4232L51.5322 13.4373ZM51.5264 8.92502L45.0499 22.7289H46.7479C46.939 22.7289 47.0969 22.6822 47.2215 22.589C47.3459 22.4975 47.4349 22.3994 47.4841 22.2931L48.6169 19.726H54.4514L55.5825 22.2931C55.6454 22.416 55.7349 22.5173 55.8557 22.601C55.975 22.6861 56.1307 22.7289 56.3301 22.7289H58.0275L51.5264 8.92502Z" fill="black"></path> <path fill-rule="evenodd" clip-rule="evenodd" d="M15.947 0C15.947 0 12.4913 7.3211 12.1712 8.02753C11.7559 8.93867 11.7935 9.33945 12.0577 9.92018C12.2449 10.3287 16.7288 19.8523 18.1039 22.7732H10.7183L13.8452 29.4148H21.2286C22.0891 31.2424 22.8326 32.8241 22.8857 32.9342C23.2589 33.6868 23.4998 34 24.6676 34H31.9537L15.947 0Z" fill="black"></path> <path fill-rule="evenodd" clip-rule="evenodd" d="M30.1043 11.0582C30.1043 12.8935 28.6182 14.3793 26.7826 14.3793C24.9506 14.3793 23.4637 12.8935 23.4637 11.0582C23.4637 9.22646 24.9506 7.73877 26.7826 7.73877C28.6182 7.73877 30.1043 9.22646 30.1043 11.0582Z" fill="#F9057C"></path> <path fill-rule="evenodd" clip-rule="evenodd" d="M0 34H16.0022L7.9886 16.976L0 34Z" fill="#3B5AF5"></path> </svg> 